<?xml version="1.0" encoding="utf-8"?>
<!-- Generator: Adobe Illustrator 27.4.1, SVG Export Plug-In . SVG Version: 6.00 Build 0)  -->
<svg version="1.1" id="Layer_1" xmlns="http://www.w3.org/2000/svg" xmlns:xlink="http://www.w3.org/1999/xlink" x="0px" y="0px"
	 viewBox="0 0 512 512" style="enable-background:new 0 0 512 512;" xml:space="preserve">
<style type="text/css">
	.st0{fill:#FFFFFF;}
</style>
<circle class="st0" cx="256" cy="256" r="234.3"/>
<path d="M234.7,175l30.4-15.2h106.4v57.7h-69c-13.2-9.1-29.2-14.4-46.4-14.4s-33.2,5.4-46.4,14.4h-69V179h77
	C223.5,179,229.4,177.7,234.7,175z M102.1,179v173.1c0,21.2,17.3,38.5,38.5,38.5h230.9c21.2,0,38.5-17.3,38.5-38.5V159.8
	c0-21.2-17.3-38.5-38.5-38.5H265.1c-6,0-11.8,1.4-17.2,4.1l-30.4,15.2h-19.2V131c0-5.3-4.3-9.6-9.6-9.6h-38.5
	c-5.3,0-9.6,4.3-9.6,9.6v9.6C119.3,140.6,102.1,157.8,102.1,179z M203.1,284.9c0-29.2,23.7-52.9,52.9-52.9s52.9,23.7,52.9,52.9
	s-23.7,52.9-52.9,52.9S203.1,314.1,203.1,284.9z"/>
</svg>
